<svg  xmlns="http://www.w3.org/2000/svg"
      xmlns:xlink="http://www.w3.org/1999/xlink">
  <path fill-rule="evenodd" d="M6.356.862a6.434 6.434 0 0 1 8.782 2.346A6.385 6.385 0 0 1 16 6.412a6.417 6.417 0 0 1-3.216 5.565L8.161 14.64l-.944.542-1.378.796a.152.152 0 0 1-.229-.132v-3.156c0-.187-.05-.37-.143-.533L1.078 4.573a.582.582 0 0 1 .214-.796L6.356.862zm2.683 8.334 1.601-.924a2.137 2.137 0 0 0 .786-2.924 2.143 2.143 0 0 0-2.927-.781l-1.604.92a.291.291 0 0 0-.107.4L8.64 9.088c.08.14.259.187.399.107z" clip-rule="evenodd"></path>
</svg>
